<svg width="140" height="50" viewBox="0 0 140 50" fill="none" xmlns="http://www.w3.org/2000/svg">
<path d="M57.5742 15.9731V28.77H54.4893V15.9731H57.5742ZM62.5488 21.2993V23.6723H56.6953V21.2993H62.5488ZM63.0498 15.9731V18.3549H56.6953V15.9731H63.0498ZM66.9521 21.6157V28.77H63.9902V19.2602H66.7588L66.9521 21.6157ZM69.7646 19.1899L69.7119 21.9409C69.5947 21.9291 69.4365 21.9145 69.2373 21.8969C69.0381 21.8793 68.8711 21.8705 68.7363 21.8705C68.3906 21.8705 68.0918 21.9116 67.8398 21.9936C67.5938 22.0698 67.3887 22.187 67.2246 22.3452C67.0664 22.4975 66.9492 22.6909 66.873 22.9252C66.8027 23.1596 66.7705 23.4321 66.7764 23.7426L66.2402 23.3911C66.2402 22.7524 66.3018 22.1723 66.4248 21.6508C66.5537 21.1235 66.7354 20.6694 66.9697 20.2885C67.2041 19.9018 67.4883 19.6059 67.8223 19.4008C68.1562 19.1899 68.5312 19.0844 68.9473 19.0844C69.0938 19.0844 69.2373 19.0932 69.3779 19.1108C69.5244 19.1284 69.6533 19.1547 69.7646 19.1899ZM73.9131 19.2602V28.77H70.9424V19.2602H73.9131ZM70.7666 16.808C70.7666 16.3862 70.9189 16.0405 71.2236 15.7709C71.5283 15.5014 71.9238 15.3666 72.4102 15.3666C72.8965 15.3666 73.292 15.5014 73.5967 15.7709C73.9014 16.0405 74.0537 16.3862 74.0537 16.808C74.0537 17.2299 73.9014 17.5756 73.5967 17.8452C73.292 18.1147 72.8965 18.2495 72.4102 18.2495C71.9238 18.2495 71.5283 18.1147 71.2236 17.8452C70.9189 17.5756 70.7666 17.2299 70.7666 16.808ZM80.3467 28.9457C79.5732 28.9457 78.8818 28.8256 78.2725 28.5854C77.6631 28.3393 77.1475 28.0024 76.7256 27.5746C76.3096 27.1469 75.9902 26.6547 75.7676 26.0981C75.5508 25.5414 75.4424 24.9526 75.4424 24.3315V23.9975C75.4424 23.3002 75.5391 22.6557 75.7324 22.0639C75.9258 21.4662 76.2129 20.9448 76.5938 20.4995C76.9746 20.0541 77.4521 19.7084 78.0264 19.4623C78.6006 19.2104 79.2686 19.0844 80.0303 19.0844C80.7041 19.0844 81.3076 19.1928 81.8408 19.4096C82.374 19.6264 82.8252 19.937 83.1943 20.3412C83.5693 20.7455 83.8535 21.2348 84.0469 21.809C84.2461 22.3832 84.3457 23.0278 84.3457 23.7426V24.9467H76.5762V23.0922H81.4541V22.8637C81.46 22.5473 81.4043 22.2778 81.2871 22.0551C81.1758 21.8325 81.0117 21.6625 80.7949 21.5453C80.5781 21.4282 80.3145 21.3696 80.0039 21.3696C79.6816 21.3696 79.415 21.4399 79.2041 21.5805C78.999 21.7211 78.8379 21.9145 78.7207 22.1606C78.6094 22.4008 78.5303 22.6791 78.4834 22.9955C78.4365 23.312 78.4131 23.6459 78.4131 23.9975V24.3315C78.4131 24.683 78.46 25.0024 78.5537 25.2895C78.6533 25.5766 78.7939 25.8227 78.9756 26.0278C79.1631 26.227 79.3857 26.3823 79.6436 26.4936C79.9072 26.6049 80.2061 26.6606 80.54 26.6606C80.9443 26.6606 81.3428 26.5844 81.7354 26.4321C82.1279 26.2797 82.4648 26.0278 82.7461 25.6762L84.0908 27.2758C83.8975 27.5512 83.6221 27.8178 83.2646 28.0756C82.9131 28.3334 82.4912 28.5444 81.999 28.7084C81.5068 28.8666 80.9561 28.9457 80.3467 28.9457ZM88.459 21.2905V28.77H85.4971V19.2602H88.2744L88.459 21.2905ZM88.1074 23.6899L87.4131 23.7075C87.4131 22.9809 87.501 22.3334 87.6768 21.7651C87.8525 21.1909 88.1016 20.7045 88.4238 20.3061C88.7461 19.9077 89.1299 19.6059 89.5752 19.4008C90.0264 19.1899 90.5273 19.0844 91.0781 19.0844C91.5176 19.0844 91.9189 19.1489 92.2822 19.2778C92.6514 19.4067 92.9678 19.6147 93.2314 19.9018C93.501 20.1889 93.7061 20.5698 93.8467 21.0444C93.9932 21.5131 94.0664 22.0932 94.0664 22.7846V28.77H91.0869V22.7758C91.0869 22.395 91.0342 22.1049 90.9287 21.9057C90.8232 21.7006 90.6709 21.56 90.4717 21.4838C90.2725 21.4077 90.0293 21.3696 89.7422 21.3696C89.4375 21.3696 89.1797 21.4282 88.9688 21.5453C88.7578 21.6625 88.5879 21.8266 88.459 22.0375C88.3359 22.2426 88.2451 22.4858 88.1865 22.767C88.1338 23.0483 88.1074 23.3559 88.1074 23.6899ZM101.177 26.5903V15.27H104.156V28.77H101.484L101.177 26.5903ZM95.3408 24.1293V23.9448C95.3408 23.2241 95.4199 22.5678 95.5781 21.976C95.7363 21.3784 95.9707 20.8657 96.2812 20.4379C96.5918 20.0043 96.9785 19.6703 97.4414 19.436C97.9043 19.2016 98.4375 19.0844 99.041 19.0844C99.5801 19.0844 100.052 19.2104 100.456 19.4623C100.86 19.7084 101.206 20.0541 101.493 20.4995C101.78 20.9448 102.015 21.4662 102.196 22.0639C102.378 22.6557 102.516 23.2944 102.609 23.9799V24.1996C102.516 24.8442 102.378 25.4536 102.196 26.0278C102.015 26.5961 101.78 27.1 101.493 27.5395C101.206 27.9789 100.857 28.3246 100.447 28.5766C100.043 28.8227 99.5684 28.9457 99.0234 28.9457C98.4199 28.9457 97.8867 28.8256 97.4238 28.5854C96.9668 28.3452 96.583 28.0082 96.2725 27.5746C95.9678 27.1411 95.7363 26.6313 95.5781 26.0453C95.4199 25.4594 95.3408 24.8207 95.3408 24.1293ZM98.3027 23.9448V24.1293C98.3027 24.4868 98.3262 24.8178 98.373 25.1225C98.4199 25.4272 98.499 25.6967 98.6104 25.9311C98.7275 26.1596 98.8799 26.3383 99.0674 26.4672C99.2607 26.5961 99.498 26.6606 99.7793 26.6606C100.16 26.6606 100.474 26.5698 100.72 26.3881C100.972 26.2065 101.156 25.9487 101.273 25.6147C101.396 25.2807 101.449 24.8881 101.432 24.437V23.7426C101.443 23.3559 101.417 23.0161 101.353 22.7231C101.288 22.4243 101.186 22.1752 101.045 21.976C100.91 21.7768 100.737 21.6274 100.526 21.5278C100.321 21.4223 100.078 21.3696 99.7969 21.3696C99.5215 21.3696 99.2871 21.434 99.0938 21.5629C98.9062 21.6918 98.7539 21.8735 98.6367 22.1078C98.5195 22.3364 98.4346 22.6088 98.3818 22.9252C98.3291 23.2358 98.3027 23.5756 98.3027 23.9448ZM110.818 26.0981C110.818 25.934 110.763 25.7934 110.651 25.6762C110.546 25.5532 110.358 25.4418 110.089 25.3422C109.819 25.2368 109.441 25.1313 108.955 25.0258C108.492 24.9262 108.056 24.7944 107.646 24.6303C107.241 24.4662 106.887 24.267 106.582 24.0327C106.277 23.7983 106.037 23.52 105.861 23.1977C105.691 22.8754 105.606 22.5063 105.606 22.0903C105.606 21.686 105.691 21.3051 105.861 20.9477C106.037 20.5844 106.292 20.2651 106.626 19.9897C106.966 19.7084 107.379 19.4887 107.865 19.3305C108.352 19.1664 108.905 19.0844 109.526 19.0844C110.382 19.0844 111.12 19.2162 111.741 19.4799C112.362 19.7377 112.84 20.101 113.174 20.5698C113.514 21.0327 113.684 21.5688 113.684 22.1782H110.722C110.722 21.9379 110.681 21.7328 110.599 21.5629C110.522 21.393 110.396 21.2641 110.221 21.1762C110.045 21.0825 109.811 21.0356 109.518 21.0356C109.312 21.0356 109.125 21.0737 108.955 21.1498C108.791 21.226 108.659 21.3315 108.56 21.4662C108.46 21.601 108.41 21.7592 108.41 21.9409C108.41 22.0698 108.439 22.187 108.498 22.2924C108.562 22.392 108.659 22.4858 108.788 22.5737C108.917 22.6557 109.081 22.7319 109.28 22.8022C109.479 22.8666 109.72 22.9252 110.001 22.978C110.64 23.0952 111.237 23.2621 111.794 23.4789C112.351 23.6957 112.802 24.0034 113.147 24.4018C113.499 24.8002 113.675 25.3364 113.675 26.0102C113.675 26.4321 113.578 26.8217 113.385 27.1791C113.191 27.5307 112.913 27.8412 112.55 28.1108C112.187 28.3745 111.75 28.5795 111.24 28.726C110.73 28.8725 110.156 28.9457 109.518 28.9457C108.609 28.9457 107.842 28.7846 107.215 28.4623C106.588 28.1342 106.113 27.7241 105.791 27.2319C105.475 26.7338 105.316 26.2299 105.316 25.7202H108.076C108.088 26.0131 108.158 26.2534 108.287 26.4409C108.422 26.6284 108.601 26.7661 108.823 26.8539C109.046 26.9418 109.304 26.9858 109.597 26.9858C109.866 26.9858 110.089 26.9477 110.265 26.8715C110.446 26.7953 110.584 26.6928 110.678 26.5639C110.771 26.4291 110.818 26.2739 110.818 26.0981ZM117.964 15.27V28.77H115.002V15.27H117.964ZM117.612 23.6899L116.918 23.7075C116.918 23.0395 117 22.4243 117.164 21.8618C117.328 21.2993 117.562 20.81 117.867 20.394C118.172 19.978 118.538 19.6557 118.966 19.4272C119.394 19.1987 119.868 19.0844 120.39 19.0844C120.858 19.0844 121.286 19.1518 121.673 19.2866C122.065 19.4213 122.402 19.6381 122.684 19.937C122.971 20.2358 123.19 20.6254 123.343 21.1059C123.501 21.5864 123.58 22.1723 123.58 22.8637V28.77H120.601V22.8461C120.601 22.4594 120.545 22.1606 120.434 21.9496C120.328 21.7328 120.176 21.5834 119.977 21.5014C119.777 21.4135 119.534 21.3696 119.247 21.3696C118.901 21.3696 118.62 21.4282 118.403 21.5453C118.187 21.6625 118.02 21.8266 117.902 22.0375C117.791 22.2426 117.715 22.4858 117.674 22.767C117.633 23.0483 117.612 23.3559 117.612 23.6899ZM128.353 19.2602V28.77H125.382V19.2602H128.353ZM125.206 16.808C125.206 16.3862 125.358 16.0405 125.663 15.7709C125.968 15.5014 126.363 15.3666 126.85 15.3666C127.336 15.3666 127.731 15.5014 128.036 15.7709C128.341 16.0405 128.493 16.3862 128.493 16.808C128.493 17.2299 128.341 17.5756 128.036 17.8452C127.731 18.1147 127.336 18.2495 126.85 18.2495C126.363 18.2495 125.968 18.1147 125.663 17.8452C125.358 17.5756 125.206 17.2299 125.206 16.808ZM133.169 21.0883V32.4262H130.207V19.2602H132.967L133.169 21.0883ZM139.005 23.9008V24.0854C139.005 24.7768 138.926 25.4184 138.768 26.0102C138.609 26.602 138.375 27.1176 138.064 27.5571C137.754 27.9965 137.367 28.3393 136.904 28.5854C136.447 28.8256 135.917 28.9457 135.313 28.9457C134.745 28.9457 134.256 28.8198 133.846 28.5678C133.436 28.3159 133.093 27.9672 132.817 27.5219C132.542 27.0766 132.319 26.5668 132.149 25.9926C131.979 25.4184 131.845 24.812 131.745 24.1733V23.936C131.845 23.2504 131.979 22.6147 132.149 22.0287C132.319 21.437 132.542 20.9213 132.817 20.4819C133.093 20.0424 133.433 19.6996 133.837 19.4536C134.247 19.2075 134.736 19.0844 135.305 19.0844C135.908 19.0844 136.438 19.1987 136.896 19.4272C137.358 19.6557 137.745 19.9838 138.056 20.4116C138.372 20.8334 138.609 21.3403 138.768 21.9321C138.926 22.5239 139.005 23.1801 139.005 23.9008ZM136.043 24.0854V23.9008C136.043 23.5317 136.017 23.1948 135.964 22.8901C135.911 22.5795 135.826 22.31 135.709 22.0815C135.598 21.853 135.448 21.6772 135.261 21.5541C135.073 21.4311 134.842 21.3696 134.566 21.3696C134.25 21.3696 133.983 21.4194 133.767 21.519C133.556 21.6127 133.386 21.7592 133.257 21.9584C133.134 22.1518 133.046 22.395 132.993 22.6879C132.946 22.975 132.926 23.312 132.932 23.6987V24.4194C132.92 24.8647 132.964 25.2573 133.063 25.5971C133.163 25.9311 133.336 26.1918 133.582 26.3793C133.828 26.5668 134.162 26.6606 134.584 26.6606C134.865 26.6606 135.1 26.5961 135.287 26.4672C135.475 26.3325 135.624 26.1479 135.735 25.9135C135.847 25.6733 135.926 25.3979 135.973 25.0873C136.02 24.7768 136.043 24.4428 136.043 24.0854ZM61.7666 42.437H64.8428C64.8018 43.3276 64.5615 44.1127 64.1221 44.7924C63.6826 45.4721 63.0732 46.0024 62.2939 46.3832C61.5205 46.7582 60.6064 46.9457 59.5518 46.9457C58.6963 46.9457 57.9316 46.8022 57.2578 46.5151C56.5898 46.228 56.0215 45.8149 55.5527 45.2758C55.0898 44.7368 54.7354 44.0834 54.4893 43.3159C54.249 42.5483 54.1289 41.684 54.1289 40.7231V40.0287C54.1289 39.0678 54.2549 38.2036 54.5068 37.436C54.7646 36.6625 55.1279 36.0063 55.5967 35.4672C56.0713 34.9223 56.6396 34.5063 57.3018 34.2192C57.9639 33.9321 58.6992 33.7885 59.5078 33.7885C60.6211 33.7885 61.5615 33.9877 62.3291 34.3862C63.0967 34.7846 63.6914 35.3325 64.1133 36.0297C64.5352 36.7211 64.7842 37.5092 64.8604 38.394H61.7842C61.7725 37.9135 61.6904 37.5121 61.5381 37.1899C61.3857 36.8618 61.1455 36.6157 60.8174 36.4516C60.4893 36.2875 60.0527 36.2055 59.5078 36.2055C59.127 36.2055 58.7959 36.2758 58.5146 36.4164C58.2334 36.5571 57.999 36.7797 57.8115 37.0844C57.624 37.3891 57.4834 37.7846 57.3896 38.2709C57.3018 38.7514 57.2578 39.3315 57.2578 40.0112V40.7231C57.2578 41.4028 57.2988 41.9828 57.3809 42.4633C57.4629 42.9438 57.5947 43.3364 57.7764 43.6411C57.958 43.9457 58.1924 44.1713 58.4795 44.3178C58.7725 44.4584 59.1299 44.5287 59.5518 44.5287C60.0205 44.5287 60.416 44.4555 60.7383 44.309C61.0605 44.1567 61.3096 43.9282 61.4854 43.6235C61.6611 43.3129 61.7549 42.9174 61.7666 42.437ZM69.29 33.27V46.77H66.3193V33.27H69.29ZM74.2471 37.2602V46.77H71.2764V37.2602H74.2471ZM71.1006 34.808C71.1006 34.3862 71.2529 34.0405 71.5576 33.7709C71.8623 33.5014 72.2578 33.3666 72.7441 33.3666C73.2305 33.3666 73.626 33.5014 73.9307 33.7709C74.2354 34.0405 74.3877 34.3862 74.3877 34.808C74.3877 35.2299 74.2354 35.5756 73.9307 35.8452C73.626 36.1147 73.2305 36.2495 72.7441 36.2495C72.2578 36.2495 71.8623 36.1147 71.5576 35.8452C71.2529 35.5756 71.1006 35.2299 71.1006 34.808ZM78.9844 39.2905V46.77H76.0225V37.2602H78.7998L78.9844 39.2905ZM78.6328 41.6899L77.9385 41.7075C77.9385 40.9809 78.0264 40.3334 78.2021 39.7651C78.3779 39.1909 78.627 38.7045 78.9492 38.3061C79.2715 37.9077 79.6553 37.6059 80.1006 37.4008C80.5518 37.1899 81.0527 37.0844 81.6035 37.0844C82.043 37.0844 82.4443 37.1489 82.8076 37.2778C83.1768 37.4067 83.4932 37.6147 83.7568 37.9018C84.0264 38.1889 84.2314 38.5698 84.3721 39.0444C84.5186 39.5131 84.5918 40.0932 84.5918 40.7846V46.77H81.6123V40.7758C81.6123 40.395 81.5596 40.1049 81.4541 39.9057C81.3486 39.7006 81.1963 39.56 80.9971 39.4838C80.7979 39.4077 80.5547 39.3696 80.2676 39.3696C79.9629 39.3696 79.7051 39.4282 79.4941 39.5453C79.2832 39.6625 79.1133 39.8266 78.9844 40.0375C78.8613 40.2426 78.7705 40.4858 78.7119 40.767C78.6592 41.0483 78.6328 41.3559 78.6328 41.6899ZM89.3643 37.2602V46.77H86.3936V37.2602H89.3643ZM86.2178 34.808C86.2178 34.3862 86.3701 34.0405 86.6748 33.7709C86.9795 33.5014 87.375 33.3666 87.8613 33.3666C88.3477 33.3666 88.7432 33.5014 89.0479 33.7709C89.3525 34.0405 89.5049 34.3862 89.5049 34.808C89.5049 35.2299 89.3525 35.5756 89.0479 35.8452C88.7432 36.1147 88.3477 36.2495 87.8613 36.2495C87.375 36.2495 86.9795 36.1147 86.6748 35.8452C86.3701 35.5756 86.2178 35.2299 86.2178 34.808ZM95.209 44.6606C95.4844 44.6606 95.7188 44.6108 95.9121 44.5112C96.1113 44.4057 96.2607 44.2592 96.3604 44.0717C96.4658 43.8784 96.5156 43.6469 96.5098 43.3774H99.2959C99.3018 44.0922 99.126 44.7192 98.7686 45.2582C98.417 45.7914 97.9365 46.2075 97.3271 46.5063C96.7236 46.7993 96.041 46.9457 95.2793 46.9457C94.5352 46.9457 93.8848 46.8256 93.3281 46.5854C92.7715 46.3393 92.3057 45.9995 91.9307 45.5659C91.5615 45.1264 91.2832 44.6137 91.0957 44.0278C90.9141 43.4418 90.8232 42.8061 90.8232 42.1205V41.9184C90.8232 41.2328 90.9141 40.5971 91.0957 40.0112C91.2832 39.4194 91.5615 38.9067 91.9307 38.4731C92.3057 38.0336 92.7686 37.6938 93.3193 37.4536C93.876 37.2075 94.5234 37.0844 95.2617 37.0844C96.0527 37.0844 96.75 37.2338 97.3535 37.5327C97.9629 37.8315 98.4404 38.2651 98.7861 38.8334C99.1318 39.4018 99.3018 40.0903 99.2959 40.8989H96.5098C96.5156 40.6118 96.4717 40.3539 96.3779 40.1254C96.2842 39.8969 96.1377 39.7153 95.9385 39.5805C95.7451 39.4399 95.4961 39.3696 95.1914 39.3696C94.8867 39.3696 94.6406 39.437 94.4531 39.5717C94.2656 39.7065 94.1221 39.894 94.0225 40.1342C93.9287 40.3686 93.8643 40.6381 93.8291 40.9428C93.7998 41.2475 93.7852 41.5727 93.7852 41.9184V42.1205C93.7852 42.4721 93.7998 42.8032 93.8291 43.1137C93.8643 43.4184 93.9316 43.6879 94.0312 43.9223C94.1309 44.1508 94.2744 44.3325 94.4619 44.4672C94.6494 44.5961 94.8984 44.6606 95.209 44.6606Z" fill="white"/>
<path d="M20.0546 10.3137C19.934 10.1682 19.7131 10.0234 19.7036 9.87523C19.6603 9.104 19.6601 8.33151 19.6813 7.55838C19.6855 7.41537 19.8519 7.26256 19.9774 7.14891C20.0218 7.11021 20.1735 7.1811 20.2848 7.20573C20.3144 7.33603 20.3511 7.43989 20.3521 7.54256C20.3629 8.31642 20.3812 9.08782 20.3533 9.85668C20.3544 10.014 20.1603 10.1599 20.0546 10.3137ZM24.5089 4.48768C24.5776 4.53757 24.6462 4.58746 24.7118 4.63354C24.6997 4.80971 24.7189 4.99334 24.6756 5.16207C24.2368 6.81431 23.7979 8.46655 23.3242 10.1109C23.2665 10.3085 23.0016 10.4486 22.8331 10.6182C22.7783 10.406 22.6329 10.1753 22.6819 9.99024C23.1102 8.30928 23.5631 6.63151 24.0402 4.96028C24.0931 4.7723 24.3461 4.64095 24.5089 4.48768ZM16.8601 10.4612C16.735 10.2947 16.7004 10.0646 16.6412 9.8587C15.9396 7.43011 15.2384 4.99815 14.5403 2.57001C14.4811 2.36412 14.4017 2.14877 14.4137 1.94524C14.4219 1.82667 14.5834 1.68349 14.7121 1.62836C14.7763 1.60247 14.9598 1.73215 15.0219 1.83246C15.1047 1.96622 15.1296 2.1335 15.1738 2.2896C15.9014 4.79334 16.6321 7.30089 17.3558 9.80754C17.4248 10.0489 17.4454 10.3045 17.5305 10.7803C17.1693 10.614 16.9517 10.5824 16.8601 10.4612ZM12.9281 9.50855C12.8527 9.37234 12.972 9.14166 13.0033 8.95431C13.1784 9.03847 13.4273 9.07747 13.5171 9.21214C13.9251 9.81859 14.3018 10.4449 14.6522 11.0815C14.7333 11.2287 14.6541 11.4543 14.6477 11.6415C14.4657 11.6111 14.2837 11.5808 14.1821 11.5642C13.712 10.8028 13.2935 10.1676 12.9281 9.50855ZM7.88411 9.49561C7.75073 9.36557 7.76878 9.08763 7.71705 8.87928C7.93645 8.92474 8.21818 8.90306 8.35947 9.02728C9.04387 9.62504 9.68744 10.2619 10.3468 10.8872C10.9873 11.493 11.6369 12.0828 12.2493 12.7123C12.3787 12.8452 12.3589 13.1093 12.4111 13.3143C12.1947 13.2726 11.9078 13.3073 11.7735 13.184C10.457 11.9713 9.16067 10.7407 7.88411 9.49561ZM9.65575 18.003C9.61106 18.0997 9.45121 18.2021 9.34087 18.1981C9.12328 18.1939 8.89901 18.1307 8.68442 18.0756C6.0808 17.4143 3.48025 16.7568 0.883621 16.0691C0.627696 16.0018 0.434759 15.7239 0.211631 15.5413C0.481029 15.5043 0.77141 15.3881 1.01765 15.4472C3.65202 16.092 6.27897 16.7666 8.9103 17.4349C9.12488 17.49 9.33291 17.5682 9.58358 17.6484C9.61058 17.7715 9.69606 17.9125 9.65575 18.003ZM10.6129 15.4949C10.5713 15.5681 10.2984 15.6046 10.191 15.5497C9.45334 15.1706 8.7222 14.7685 8.00729 14.3514C7.90435 14.2902 7.89086 14.0902 7.8366 13.9567C8.00313 13.9133 8.21305 13.7832 8.32742 13.8391C9.07433 14.2022 9.79801 14.6068 10.611 15.04C10.6208 15.1849 10.6822 15.374 10.6129 15.4949Z" fill="white"/>
<path d="M16.6052 13.4838C18.2094 12.7751 19.9494 12.5934 21.5947 12.8949C22.0278 12.9748 22.453 13.0879 22.8703 13.2342L24.2639 12.4129C23.9225 12.2594 23.5689 12.1179 23.1978 12.0016C19.71 10.9047 16.506 11.4851 13.7972 13.7667C12.1799 15.1299 11.1774 16.7435 10.7766 18.5715L12.2812 18.2465C12.9463 16.1723 14.4817 14.4192 16.6052 13.4838Z" fill="white"/>
<path d="M17.3567 9.80057C16.633 7.29392 15.9058 4.78682 15.1746 2.28263C15.1305 2.12653 15.1056 1.95925 15.0228 1.82549C14.9602 1.72854 14.7771 1.5955 14.713 1.62139C14.5843 1.67652 14.4227 1.8197 14.4146 1.93827C14.399 2.14134 14.482 2.35714 14.5412 2.56304C15.2388 4.99454 15.9404 7.42314 16.642 9.85173C16.7012 10.0576 16.7359 10.2877 16.861 10.4542C16.9526 10.5755 17.1698 10.6104 17.5317 10.77C17.4493 10.3013 17.4287 10.0457 17.3567 9.80057Z" fill="white"/>
<path d="M1.01719 15.4503C0.771381 15.3878 0.480566 15.5074 0.211169 15.5443C0.43473 15.7236 0.631185 16.002 0.883158 16.0721C3.47584 16.7628 6.08033 17.4174 8.68396 18.0787C8.89855 18.1338 9.12282 18.197 9.34041 18.2012C9.45118 18.2018 9.61103 18.0994 9.65529 18.006C9.69559 17.9155 9.61011 17.7746 9.57917 17.6544C9.3285 17.5741 9.12047 17.496 8.90588 17.4409C6.27894 16.7663 3.65156 16.0951 1.01719 15.4503Z" fill="white"/>
<path d="M12.2498 12.7086C11.6375 12.0791 10.9843 11.4888 10.3473 10.8835C9.68753 10.2616 9.04439 9.62135 8.35999 9.02359C9.04439 9.62135 9.68796 10.2583 10.3438 10.8831C10.9843 11.4888 11.637 12.0825 12.2498 12.7086Z" fill="white"/>
<path d="M12.2497 12.7087C11.6373 12.0793 10.9842 11.489 10.3472 10.8837C9.68783 10.2584 9.04426 9.62146 8.36337 9.02416C8.22209 8.89994 7.94036 8.92162 7.72095 8.87617C7.77269 9.08451 7.75112 9.362 7.88802 9.49249C9.16458 10.7376 10.4609 11.9682 11.7779 13.1775C11.9121 13.3008 12.1987 13.2695 12.4154 13.3078C12.3593 13.1057 12.3791 12.8417 12.2497 12.7087Z" fill="white"/>
<path d="M22.8332 10.618C23.0013 10.4517 23.2665 10.3083 23.3243 10.1107C23.7979 8.46632 24.2368 6.81408 24.6757 5.16184C24.719 4.99312 24.6998 4.80948 24.7118 4.63331C24.6432 4.58342 24.5745 4.53353 24.509 4.48745C24.3492 4.64453 24.0927 4.77543 24.0402 4.96005C23.5631 6.63128 23.1106 8.30569 22.6819 9.99001C22.6334 10.1717 22.7783 10.4058 22.8332 10.618Z" fill="white"/>
<path d="M20.2883 7.20586C20.1771 7.18122 20.0253 7.11033 19.981 7.14903C19.8523 7.25887 19.6891 7.41549 19.6849 7.55851C19.6636 8.33163 19.6639 9.10413 19.7072 9.87535C19.7162 10.0269 19.934 10.1679 20.0582 10.3138C20.1634 10.1633 20.3579 10.0142 20.3634 9.86108C20.3917 9.08886 20.37 8.317 20.3622 7.54696C20.3546 7.44001 20.318 7.33616 20.2883 7.20586Z" fill="white"/>
<path d="M14.6518 11.0847C14.3018 10.4447 13.9246 9.82174 13.5167 9.2153C13.4268 9.08063 13.178 9.04162 13.0029 8.95747C12.9715 9.14482 12.8558 9.37595 12.9277 9.5117C13.2926 10.1741 13.7111 10.8093 14.1848 11.5712C14.2828 11.5873 14.4649 11.6177 14.6504 11.6485C14.6541 11.4541 14.7333 11.2285 14.6518 11.0847Z" fill="white"/>
<path d="M7.84055 13.9536C7.89481 14.0871 7.90829 14.2871 8.01124 14.3482C8.72571 14.7687 9.45377 15.167 10.195 15.5466C10.3023 15.6014 10.5748 15.5683 10.6169 15.4917C10.6862 15.3708 10.6244 15.1851 10.6184 15.0373C9.80548 14.6041 9.0818 14.1995 8.33489 13.8363C8.217 13.7801 8.00708 13.9102 7.84055 13.9536Z" fill="white"/>
<path d="M26.2745 13.8026C26.5421 13.6781 26.8511 13.6781 27.1187 13.8026L43.7982 21.5683C44.7686 22.0201 44.4465 23.4748 43.3761 23.4748H10.0171C8.94663 23.4748 8.62457 22.0201 9.59499 21.5683L26.2745 13.8026Z" fill="white"/>
<rect x="16.2093" y="22.4703" width="20.9746" height="16.7205" fill="white"/>
<path d="M35.1013 26.4431C35.1013 25.5501 34.3744 24.8303 33.4727 24.8303C32.571 24.8303 31.8441 25.5501 31.8441 26.4431C31.8441 27.1539 32.3133 27.7644 32.9666 27.974C32.9758 28.7941 32.9758 29.6233 32.893 30.4342C32.5894 33.3684 30.0866 35.6555 27.1423 35.7922C24.1059 35.9289 21.3731 33.8604 20.8486 30.9081C20.683 29.9604 20.7566 28.9763 20.7198 28.0013C21.4007 27.8099 21.8976 27.1903 21.8976 26.4522C21.8976 25.5501 21.1707 24.8303 20.2782 24.8303C19.3764 24.8303 18.6495 25.5501 18.6495 26.4431C18.6495 27.1083 19.0544 27.6733 19.6433 27.9193C19.6433 28.6118 19.6341 29.2497 19.6525 29.8966C19.7077 31.874 20.4714 33.5506 21.9252 34.9083C23.1305 36.0473 24.5935 36.6579 26.2037 36.8128L27.3815 36.831C27.5195 36.8128 27.6207 36.7945 27.7219 36.7763C30.7399 36.3754 33.169 34.2887 33.8039 31.3546C34.034 30.2611 33.9788 29.0948 34.0156 27.9557C34.6412 27.7462 35.1013 27.1448 35.1013 26.4431Z" fill="#18988B"/>
<path d="M27.6474 40.7115C27.7013 41.7349 27.6474 42.7717 27.6609 43.8086C27.6743 44.9801 28.3611 45.7207 29.4921 45.8014C30.7175 45.8957 31.6062 45.2763 31.7947 44.1317C31.9832 43.0141 32.266 42.0042 33.3163 41.3579C35.5246 40.0113 38.2447 41.304 38.5274 43.8624C38.6755 45.1551 39.5104 45.9092 40.7761 45.8418C41.9476 45.788 42.7152 44.9397 42.7286 43.647C42.7556 40.6173 42.7556 37.5876 42.7825 34.5578C42.7825 34.1673 42.6613 33.9384 42.2977 33.7903C41.7726 33.5883 41.3013 33.2921 40.8569 32.9285C39.1738 31.582 38.9852 29.5891 40.4664 28.0002C41.611 26.7883 43.0653 26.5459 44.6138 26.9768C46.0411 27.3808 46.9433 28.3503 47.2261 29.845C47.4415 30.9761 47.1049 31.9321 46.2566 32.6996C45.8122 33.117 45.3005 33.4671 44.7215 33.6557C44.1021 33.8576 43.954 34.2212 43.9674 34.8406C44.0078 37.7357 44.0348 40.6307 43.9405 43.5123C43.927 44.0644 43.8059 44.5761 43.5769 45.0608C42.8767 46.5286 41.7457 47.1614 40.2241 46.946C38.6351 46.7171 37.5579 45.6533 37.3425 44.1048C37.2617 43.5662 37.1136 43.0545 36.75 42.6236C36.1979 41.9773 35.4708 41.8022 34.6763 41.9907C33.8549 42.1793 33.3971 42.7852 33.1817 43.5662C33.0874 43.9298 33.0739 44.3203 32.9797 44.6838C32.5757 46.1515 31.0407 47.0941 29.3575 46.9325C27.7955 46.7844 26.5298 45.5187 26.4624 43.9702C26.422 42.8121 26.4355 41.6406 26.4355 40.4692L27.6474 40.7115ZM46.0815 30.397C46.0815 29.0505 44.8966 28.0002 43.3884 28.0002C41.9072 28.0002 40.7492 29.037 40.7357 30.3701C40.7223 31.6897 41.9746 32.8477 43.4019 32.8612C44.8023 32.8477 46.0815 31.6897 46.0815 30.397Z" fill="white"/>
</svg>
